<svg width="44" height="44" viewBox="0 0 44 44" fill="none" xmlns="http://www.w3.org/2000/svg">
<rect width="44" height="44" rx="12" fill="#303030"/>
<g clip-path="url(#clip0_1_270)">
<path d="M31.9824 19.7248C31.9402 19.5952 31.8281 19.5007 31.6932 19.481L25.2171 18.5398L22.3209 12.6716C22.2608 12.5492 22.1362 12.4719 22.0002 12.4719C21.8641 12.4719 21.7392 12.5492 21.6794 12.6716L18.7829 18.5402L12.3068 19.4814C12.1718 19.5011 12.0601 19.5952 12.0175 19.7252C11.9756 19.8544 12.0104 19.9969 12.1081 20.0917L16.7946 24.6597L15.688 31.1101C15.6651 31.2443 15.7202 31.38 15.8302 31.4602C15.9408 31.5411 16.0872 31.5515 16.2071 31.4874L22.0002 28.4423L27.7925 31.4874C27.8448 31.5149 27.9024 31.5286 27.9593 31.5286C28.0334 31.5286 28.1072 31.5056 28.1698 31.4602C28.2801 31.38 28.3352 31.2443 28.3119 31.1101L27.2057 24.6601L31.8922 20.0917C31.9896 19.9962 32.0247 19.854 31.9824 19.7248Z" fill="white"/>
</g>
<defs>
<clipPath id="clip0_1_270">
<rect width="20" height="20" fill="white" transform="translate(12 12)"/>
</clipPath>
</defs>
</svg>
